<svg xmlns="http://www.w3.org/2000/svg" version="1.1" xmlns:xlink="http://www.w3.org/1999/xlink" xmlns:svgjs="http://svgjs.dev/svgjs" width="100%" height="100%" viewBox="0 0 1000 600"><rect width="1000" height="600" x="0" y="0" fill="whitesmoke"/><g><rect width="333.3333333333333" height="333.3333333333333" rx="13.333333333333334" ry="13.333333333333334" y="303.3845935427533" fill="seagreen" transform="matrix(0.44458302791162635,0,0,0.44458302791162624,0,91.02320215113453)" x="281.16238403320307"/><path d="M345.01498548669394 542.9443479736326L328.15973843259115 542.9443479736326L328.15973843259115 397.3630040601583L382.2955145612198 397.3630040601583Q397.68763253076503 397.3630040601583 408.1051116128147 401.98649196736005Q418.55185327655545 406.63924245625304 423.81911798096263 416.4129447410973Q429.0863826853697 426.2159096076328 429.0863826853697 441.608027577178L429.0863826853697 441.608027577178Q429.0863826853697 457.6146597622374 422.6486147133166 468.5588653147277Q416.2108467412634 479.53233344890924 402.51595850980493 483.950983284273L402.51595850980493 483.950983284273L430.3446736980892 542.9443479736326L411.5873588340616 542.9443479736326L385.8948121092314 487.5210182505934L345.01498548669394 487.5210182505934L345.01498548669394 542.9443479736326ZM345.01498548669394 412.1113452324982L345.01498548669394 472.7726770782534L382.5003526330579 472.7726770782534Q393.26898269540135 472.7726770782534 399.6774880857633 468.79296596825696Q406.11525605781645 464.78399227656934 408.83667615509347 457.73171008900204Q411.5873588340616 450.65016531974356 411.5873588340616 441.8128656490161L411.5873588340616 441.8128656490161Q411.5873588340616 426.8596864048381 404.4180263197297 419.48551581866815Q397.2486938053978 412.1113452324982 382.2955145612198 412.1113452324982L382.2955145612198 412.1113452324982L345.01498548669394 412.1113452324982ZM509.76332040787196 545.0512538553955L509.76332040787196 545.0512538553955Q487.02629443384797 545.0512538553955 474.4726468883443 536.6236303283442Q461.9482619245319 528.1960068012927 457.00288561872736 511.6626481457926Q452.02824673123183 495.1292894902925 452.02824673123183 470.8998718500198L452.02824673123183 470.8998718500198Q452.02824673123183 446.6704542097471 457.0906733638009 429.8152071556443Q462.1530999963699 412.9599601015415 474.6774849601824 404.0056101040495Q487.231132505686 395.0512601065574 509.76332040787196 395.0512601065574L509.76332040787196 395.0512601065574Q532.324770891749 395.0512601065574 544.8491558555615 403.88855977728485Q557.373540819374 412.72585944801233 562.435967451943 429.6981568288797Q567.4983940845123 446.6704542097471 567.4983940845123 470.8998718500198L567.4983940845123 470.8998718500198Q567.4983940845123 495.7438037058067 562.5530177787077 512.2771623613069Q557.6076414729032 528.8397835984981 545.0539939273997 536.9455187269468Q532.5296089635872 545.0512538553955 509.76332040787196 545.0512538553955ZM509.76332040787196 530.0980746112175L509.76332040787196 530.0980746112175Q526.4137293901367 530.0980746112175 535.0461909890262 523.7773569659289Q543.6786525879156 517.4566393206405 546.8390114105598 504.28847755962266Q549.9993702332042 491.1203157986049 549.9993702332042 470.8998718500198L549.9993702332042 470.8998718500198Q549.9993702332042 451.29394211694887 546.7512236654864 437.716104212255Q543.4738145160775 424.10900372586997 534.841352917188 417.0567215383026Q526.2088913182986 410.00443935073537 509.76332040787196 410.00443935073537L509.76332040787196 410.00443935073537Q493.3470120791365 410.00443935073537 484.6852878985559 417.0567215383026Q476.0528262996665 424.10900372586997 472.80467973194874 437.5990538854904Q469.52727058253987 451.08910404511084 469.52727058253987 470.8998718500198L469.52727058253987 470.8998718500198Q469.52727058253987 490.47653900139954 472.68762940518417 503.64470076241736Q475.8479882278284 516.8128625234351 484.4804498267178 523.4554685673263Q493.11291142560725 530.0980746112175 509.76332040787196 530.0980746112175Z " fill="#292826" transform="matrix(0.44458302791162635,0,0,0.44458302791162624,0,91.02320215113453)"/><path d="M714.1125175073681 543.0158262570699L697.8290652337517 543.0158262570699L697.8290652337517 402.3731612201929L750.1283477097764 402.3731612201929Q764.998305862419 402.3731612201929 775.0623840037514 406.8398026424696Q785.1547320275032 411.33471394716577 790.2433108630082 420.77685467526965Q795.3318896985134 430.24726528579305 795.3318896985134 445.1172234384357L795.3318896985134 445.1172234384357Q795.3318896985134 460.5808491218873 789.1125155662293 471.1537851467701Q782.8931414339453 481.7549910540724 769.6628364616321 486.0237432994128L769.6628364616321 486.0237432994128L796.5474946425506 543.0158262570699L778.4265000116686 543.0158262570699L753.6055432473715 489.4726689545884L714.1125175073681 489.4726689545884L714.1125175073681 543.0158262570699ZM714.1125175073681 416.62118195960716L714.1125175073681 475.22464821517417L750.3262368867128 475.22464821517417Q760.7295536170787 475.22464821517417 766.9206578669432 471.3799442061259Q773.1400319992273 467.5069703146581 775.7691310642382 460.69392865156516Q778.4265000116686 453.8526171060528 778.4265000116686 445.315112615372L778.4265000116686 445.315112615372Q778.4265000116686 430.8692026990214 771.5003788188977 423.7451923293143Q764.574257626127 416.62118195960716 750.1283477097764 416.62118195960716L750.1283477097764 416.62118195960716L714.1125175073681 416.62118195960716ZM856.7906140784471 545.0512577912718L856.7906140784471 545.0512577912718Q841.5248775719319 545.0512577912718 832.6764043746368 539.142852365602Q823.827931177342 533.2344469399322 819.9549572858741 521.6437951479484Q816.0819833944063 510.0531433559646 816.0819833944063 492.7519753152473L816.0819833944063 492.7519753152473Q816.0819833944063 473.41537574032793 821.3684514068477 461.7116444186662Q826.6549194192892 450.00791309700446 836.2384095594905 444.60836555488515Q845.7936298172722 439.2088180127659 858.8260456126491 439.2088180127659L858.8260456126491 439.2088180127659Q879.1803609546696 439.2088180127659 889.555407802616 450.516770980555Q899.9304546505625 461.7964540659246 899.9304546505625 486.84356988957745L899.9304546505625 486.84356988957745L899.1388979428173 498.8582699178534L832.1675464910863 498.8582699178534Q832.3654356680227 514.7176739551776 838.0759519167561 522.8594000919858Q843.7581982830702 531.001126228794 858.6281564357128 531.001126228794L858.6281564357128 531.001126228794Q864.3104028020268 531.001126228794 871.1517143475394 530.6901575221798Q877.9647560106323 530.407458697985 884.6647181440474 529.983410461693Q891.3929501598818 529.5876321078204 896.0857506415143 529.1635838715282L896.0857506415143 529.1635838715282L896.481528995387 541.6023321360963Q891.5908393368181 542.3938888438415 884.5799084967889 543.2137154340062Q877.54070777434 544.0335420241709 870.2188082276966 544.5423999077213Q862.8969086810532 545.0512577912718 856.7906140784471 545.0512577912718ZM832.1675464910863 486.0237432994128L832.1675464910863 486.0237432994128L884.0710506132384 486.0237432994128Q884.0710506132384 467.3090811377218 878.0495656578905 459.8741020614005Q872.0563505849625 452.4391229850791 858.8260456126491 452.4391229850791L858.8260456126491 452.4391229850791Q845.9915189942085 452.4391229850791 839.0936676838571 460.18507076801467Q832.1675464910863 467.9027486685307 832.1675464910863 486.0237432994128ZM973.6300381181281 543.0158262570699L942.2787385149327 543.0158262570699L913.7826970361043 441.2442495469679L930.8859758998851 441.2442495469679L954.0955493662723 529.389742930884L961.8132272667885 529.389742930884L985.8426273233404 441.2442495469679L1002.1260795969565 441.2442495469679L973.6300381181281 543.0158262570699ZM1037.3220832092002 543.0158262570699L1021.6605683488121 543.0158262570699L1021.6605683488121 441.2442495469679L1037.3220832092002 441.2442495469679L1037.3220832092002 543.0158262570699ZM1037.3220832092002 418.8545026707455L1021.6605683488121 418.8545026707455L1021.6605683488121 400.53561886292715L1037.3220832092002 400.53561886292715L1037.3220832092002 418.8545026707455ZM1098.3850292352613 545.0512577912718L1098.3850292352613 545.0512577912718Q1093.7204986360484 545.0512577912718 1087.1053461498918 544.4293203780435Q1080.4901936637352 543.8356528472345 1073.9598508248368 542.902746727392Q1067.4577778683583 541.9981104899689 1062.369199032853 541.1782838998041L1062.369199032853 541.1782838998041L1063.189025623018 527.5522005736182Q1068.277604458523 528.1458681044271 1074.6948677677433 528.9656946945919Q1081.0838611945442 529.7855212847567 1087.19015579715 530.2943791683072Q1093.2964503997564 530.8032370518576 1096.9715351142877 530.8032370518576L1096.9715351142877 530.8032370518576Q1105.3111504280323 530.8032370518576 1110.8237774998292 529.2766634012062Q1116.3081346892072 527.7500897505545 1119.1633928135739 524.0750050360232Q1122.0186509379405 520.4281902039111 1122.0186509379405 513.6999581880766L1122.0186509379405 513.6999581880766Q1122.0186509379405 508.61137935257153 1119.870139874061 505.75612122820473Q1117.7216288101808 502.92913298625746 1111.926302914189 501.09159062899175Q1106.130977018197 499.254048271726 1095.133992757022 497.6143950913966L1095.133992757022 497.6143950913966Q1083.7412301419745 495.80512261655036 1076.108361888717 493.034674139442Q1068.4754936354593 490.29249554475314 1064.800408920928 484.80813835537543Q1061.1535940888157 479.29551128357826 1061.1535940888157 469.11835361256806L1061.1535940888157 469.11835361256806Q1061.1535940888157 457.72559099752056 1066.4400621012574 451.2235180410418Q1071.7265301136986 444.6931752021436 1080.1792249571213 441.9509966074547Q1088.6319198005435 439.2088180127659 1097.7913617044524 439.2088180127659L1097.7913617044524 439.2088180127659Q1103.4736080707667 439.2088180127659 1110.314919616279 439.83075542599425Q1117.127961279372 440.4244229568032 1123.6300342358504 441.35732907664584Q1130.1603770747488 442.26196531406896 1134.8249076739617 443.0817919042336L1134.8249076739617 443.0817919042336L1134.429129320089 456.7078752304195Q1129.5384396615204 455.8880486402548 1123.036366705042 455.181301579768Q1116.5060238661436 454.4745545192812 1110.0039509096646 453.96569663573064Q1103.4736080707667 453.45683875218015 1098.611188294617 453.45683875218015L1098.611188294617 453.45683875218015Q1092.5048936920111 453.45683875218015 1087.6142040334425 454.78552322589536Q1082.7235143748735 456.1142076996106 1079.8682562505069 459.36524417784995Q1077.0129981261402 462.6162806560893 1077.0129981261402 468.5246860817591L1077.0129981261402 468.5246860817591Q1077.0129981261402 472.99132750403584 1079.0484296603422 475.7335060987247Q1081.0838611945442 478.503954575833 1086.7943774432774 480.31322705067925Q1092.5048936920111 482.150769407945 1103.2757188938303 483.9883117652107L1103.2757188938303 483.9883117652107Q1115.9123563353346 486.0237432994128 1123.5452245885922 489.07689060071584Q1131.1780928418498 492.1300379020189 1134.6270184970253 497.6143950913966Q1138.0759441522014 503.12702216319377 1138.0759441522014 513.1062906572677L1138.0759441522014 513.1062906572677Q1138.0759441522014 531.001126228794 1127.5030081273185 538.0403269512426Q1116.9300721024356 545.0512577912718 1098.3850292352613 545.0512577912718ZM1177.173191538332 543.0158262570699L1161.4834067955248 543.0158262570699L1161.4834067955248 441.2442495469679L1177.173191538332 441.2442495469679L1177.173191538332 543.0158262570699ZM1177.173191538332 418.8545026707455L1161.4834067955248 418.8545026707455L1161.4834067955248 400.53561886292715L1177.173191538332 400.53561886292715L1177.173191538332 418.8545026707455ZM1245.5580371110368 545.0512577912718L1245.5580371110368 545.0512577912718Q1228.4547582472555 545.0512577912718 1218.9843476367323 539.142852365602Q1209.5422069086285 533.2344469399322 1205.754042664419 521.2480167940757Q1201.9941483026291 509.2333167657999 1201.9941483026291 490.91443295798155L1201.9941483026291 490.91443295798155Q1201.9941483026291 473.41537574032793 1206.1780909007111 461.9943432428609Q1210.3337636163737 450.6015806278134 1219.9172537565746 444.9193342614994Q1229.4724740143565 439.2088180127659 1245.5580371110368 439.2088180127659L1245.5580371110368 439.2088180127659Q1261.841489384653 439.2088180127659 1271.3967096424349 444.9193342614994Q1280.9801997826362 450.6015806278134 1285.1358724982988 461.9943432428609Q1289.3198150963804 473.41537574032793 1289.3198150963804 490.91443295798155L1289.3198150963804 490.91443295798155Q1289.3198150963804 509.2333167657999 1285.5599207345904 521.2480167940757Q1281.8000263728009 533.2344469399322 1272.3296157622772 539.142852365602Q1262.859205151754 545.0512577912718 1245.5580371110368 545.0512577912718ZM1245.5580371110368 531.425174465086L1245.5580371110368 531.425174465086Q1257.3748479623764 531.425174465086 1263.2549835056266 527.241231867004Q1269.1633889312966 523.057289268922 1271.1140108182399 514.1240064243686Q1273.0363628227642 505.16245369739585 1273.0363628227642 490.91443295798155L1273.0363628227642 490.91443295798155Q1273.0363628227642 476.86430139550356 1270.6051529346896 468.5246860817591Q1268.1456731641952 460.18507076801467 1262.2372677385256 456.5099860534832Q1256.3571321952754 452.83490133895174 1245.5580371110368 452.83490133895174L1245.5580371110368 452.83490133895174Q1234.985101086154 452.83490133895174 1228.9636161308063 456.5099860534832Q1222.970401057878 460.18507076801467 1220.5109212873836 468.5246860817591Q1218.079711399309 476.86430139550356 1218.079711399309 490.91443295798155L1218.079711399309 490.91443295798155Q1218.079711399309 505.16245369739585 1220.0020634038333 514.1240064243686Q1221.952685290777 523.057289268922 1227.8610907164466 527.241231867004Q1233.7412262596972 531.425174465086 1245.5580371110368 531.425174465086ZM1329.830556603485 543.0158262570699L1314.140771860678 543.0158262570699L1314.140771860678 441.2442495469679L1329.830556603485 441.2442495469679L1329.830556603485 448.3682599166751Q1333.2794822586607 446.332828382473 1338.4811406238437 444.297396848271Q1343.6545291066072 442.26196531406896 1349.5629345322768 440.73539166341743Q1355.4713399579468 439.2088180127659 1360.9556971473248 439.2088180127659L1360.9556971473248 439.2088180127659Q1375.0058287098027 439.2088180127659 1382.440807786124 444.18431731859306Q1389.8757868624452 449.1880865068398 1392.7310449868119 460.18507076801467Q1395.558033228759 471.1537851467701 1395.558033228759 489.07689060071584L1395.558033228759 489.07689060071584L1395.558033228759 543.0158262570699L1379.698629191435 543.0158262570699L1379.698629191435 489.69882801394425Q1379.698629191435 476.468523041631 1378.1720555407833 468.5246860817591Q1376.645481890132 460.5808491218873 1372.0657609381774 457.0188439370337Q1367.4860399862227 453.45683875218015 1358.1287089053772 453.45683875218015L1358.1287089053772 453.45683875218015Q1353.0401300698722 453.45683875218015 1347.640582527753 454.58763404895905Q1342.2410349856336 455.6901594633185 1337.5482345040014 457.4146222909063Q1332.883703904788 459.16735500091363 1329.830556603485 460.7787382988236L1329.830556603485 460.7787382988236L1329.830556603485 543.0158262570699ZM1520.9632316415405 545.0512577912718L1520.9632316415405 545.0512577912718Q1498.9692631191906 545.0512577912718 1486.8697534436565 536.9095316544638Q1474.7419738857025 528.7678055176556 1469.9643637568115 512.7953219506535Q1465.1867536279206 496.82283838365134 1465.1867536279206 473.41537574032793L1465.1867536279206 473.41537574032793Q1465.1867536279206 450.00791309700446 1470.0774432864896 433.7244608233882Q1474.9398630626388 417.4410085497719 1487.0676426205923 408.7904245294132Q1499.167152296127 400.1398405090545 1520.9632316415405 400.1398405090545L1520.9632316415405 400.1398405090545Q1542.7310411045346 400.1398405090545 1554.8305507800687 408.6773449997353Q1566.9583303380227 417.21484949041604 1571.8490199965913 433.6113812937103Q1576.7114397727405 450.00791309700446 1576.7114397727405 473.41537574032793L1576.7114397727405 473.41537574032793Q1576.7114397727405 497.4165059144603 1571.93382964385 513.3889894814624Q1567.156219514959 529.389742930884 1555.0567098394245 537.2205003610779Q1542.9289302814705 545.0512577912718 1520.9632316415405 545.0512577912718ZM1520.9632316415405 530.6053478749213L1520.9632316415405 530.6053478749213Q1537.0205248558009 530.6053478749213 1545.388410051965 524.4990532723152Q1553.7280253657095 518.3927586697091 1556.7811726670125 505.67131158094634Q1559.8343199683154 492.9498644921836 1559.8343199683154 473.41537574032793L1559.8343199683154 473.41537574032793Q1559.8343199683154 454.4745545192812 1556.6680931373344 441.35732907664584Q1553.5301361887732 428.211833751591 1545.1622509926092 421.39879208849806Q1536.8226356788646 414.58575042540514 1520.9632316415405 414.58575042540514L1520.9632316415405 414.58575042540514Q1505.075557721797 414.58575042540514 1496.7359424080519 421.39879208849806Q1488.3963270943077 428.211833751591 1485.2301002633267 441.2442495469679Q1482.0638734323456 454.27666534234487 1482.0638734323456 473.41537574032793L1482.0638734323456 473.41537574032793Q1482.0638734323456 492.32792707895516 1485.117020733649 505.04937416771793Q1488.170168034952 517.7708212564808 1496.538053231116 524.188084565701Q1504.8776685448602 530.6053478749213 1520.9632316415405 530.6053478749213ZM1622.932697528579 543.0158262570699L1607.045023608835 543.0158262570699L1607.045023608835 454.8703328731538L1594.2387668728138 454.8703328731538L1594.2387668728138 441.2442495469679L1607.045023608835 441.2442495469679L1607.045023608835 432.28269681999507Q1607.045023608835 417.6388977267082 1609.7023925562653 409.4971715899Q1612.3314916212762 401.3554454530919 1618.4377862238825 398.1892186221109Q1624.5440808264884 395.0512616735494 1634.5233493205624 395.0512616735494L1634.5233493205624 395.0512616735494Q1636.9828290910564 395.0512616735494 1641.251581336397 395.2491508504857Q1645.5203335817373 395.447040027422 1649.5911966501417 395.75800873403625Q1653.6620597185456 396.0689774406505 1655.301712898875 396.46475579452306L1655.301712898875 396.46475579452306L1655.0755538395192 409.6950607668363Q1651.4287390074073 409.4971715899 1646.2270806422239 409.38409206022214Q1641.0536921594608 409.2992824129637 1637.7743857988016 409.2992824129637L1637.7743857988016 409.2992824129637Q1632.0921394324878 409.2992824129637 1628.8411029542485 411.22163441748785Q1625.5617965935894 413.143986422012 1624.2613820022939 418.2325652575171Q1622.932697528579 423.32114409302216 1622.932697528579 432.4805859969314L1622.932697528579 432.4805859969314L1622.932697528579 441.2442495469679L1652.248565597572 441.2442495469679L1652.248565597572 454.8703328731538L1622.932697528579 454.8703328731538L1622.932697528579 543.0158262570699ZM1686.031075088842 543.0158262570699L1670.3412903460344 543.0158262570699L1670.3412903460344 441.2442495469679L1686.031075088842 441.2442495469679L1686.031075088842 543.0158262570699ZM1686.031075088842 418.8545026707455L1670.3412903460344 418.8545026707455L1670.3412903460344 400.53561886292715L1686.031075088842 400.53561886292715L1686.031075088842 418.8545026707455ZM1753.0024265405727 545.0512577912718L1753.0024265405727 545.0512577912718Q1736.916863443893 545.0512577912718 1727.7574215399836 539.6517102491525Q1718.5979796360743 534.2521627070332 1714.8380852742844 522.2657325611768Q1711.049921030075 510.25103253290087 1711.049921030075 490.49038472168945L1711.049921030075 490.49038472168945Q1711.049921030075 471.9736117369348 1715.233863628157 460.69392865156516Q1719.417806226239 449.38597568377605 1728.7751373070846 444.297396848271Q1738.1324683879302 439.2088180127659 1753.200315717509 439.2088180127659L1753.200315717509 439.2088180127659Q1756.6492413726846 439.2088180127659 1761.6530105609313 439.7176758963164Q1766.6285098667586 440.2265337798669 1771.9149778792003 440.9332808403537Q1777.2014458916415 441.64002790084055 1781.074419783109 442.26196531406896L1781.074419783109 442.26196531406896L1780.4807522523001 455.29438110944585Q1777.0035567147052 454.8703328731538 1772.5369152924286 454.4745545192812Q1768.0420039877322 454.07877616540856 1763.773251742392 453.7678074587944Q1759.5044994970517 453.45683875218015 1756.6492413726846 453.45683875218015L1756.6492413726846 453.45683875218015Q1745.0585895807012 453.45683875218015 1738.641326271481 457.1319234667116Q1732.2240629622602 460.7787382988236 1729.679773544508 468.83565478837335Q1727.1354841267553 476.86430139550356 1727.1354841267553 490.49038472168945L1727.1354841267553 490.49038472168945Q1727.1354841267553 505.36034287433216 1729.3688048378935 514.2088160716271Q1731.6303954314517 523.057289268922 1737.934579210994 526.9302631603898Q1744.238762990536 530.8032370518576 1756.6492413726846 530.8032370518576L1756.6492413726846 530.8032370518576Q1759.5044994970517 530.8032370518576 1763.88633127207 530.4922683452435Q1768.268163047088 530.1812996386293 1772.8478839990426 529.7855212847567Q1777.4276049509972 529.389742930884 1780.8765306061732 529.1635838715282L1780.8765306061732 529.1635838715282L1781.2723089600458 542.1959996669052Q1777.2014458916415 542.8179370801336 1771.9149778792003 543.4116046109425Q1766.6285098667586 544.0335420241709 1761.5399310312537 544.5423999077213Q1756.4513521957483 545.0512577912718 1753.0024265405727 545.0512577912718ZM1819.7476189329482 543.0158262570699L1804.08610407256 543.0158262570699L1804.08610407256 441.2442495469679L1819.7476189329482 441.2442495469679L1819.7476189329482 543.0158262570699ZM1819.7476189329482 418.8545026707455L1804.08610407256 418.8545026707455L1804.08610407256 400.53561886292715L1819.7476189329482 400.53561886292715L1819.7476189329482 418.8545026707455ZM1871.2553447012274 545.0512577912718L1871.2553447012274 545.0512577912718Q1857.2052131387495 545.0512577912718 1849.8833135921059 537.1074208314001Q1842.5614140454627 529.1635838715282 1842.5614140454627 513.8978473650129L1842.5614140454627 513.8978473650129Q1842.5614140454627 503.9468487533585 1846.0103397006383 497.6143950913966Q1849.4592653558138 491.3102113118542 1856.4984660782625 487.9460953039369Q1863.5093969182917 484.6102491784391 1873.8844437662383 483.79042258827445L1873.8844437662383 483.79042258827445L1905.2357433694337 480.73727528697134L1905.2357433694337 471.9736117369348Q1905.2357433694337 461.5985648889883 1900.6560224174787 457.3298126436479Q1896.0763014655245 453.0610603983075 1887.1147487385515 453.0610603983075L1887.1147487385515 453.0610603983075Q1882.0261699030466 453.0610603983075 1875.0152390630174 453.45683875218015Q1868.0043082229881 453.8526171060528 1861.0781870302171 454.4745545192812Q1854.1520658374461 455.0964919325096 1848.865597825005 455.6901594633185L1848.865597825005 455.6901594633185L1848.0457712348402 443.67545943504257Q1852.9364608934088 442.6577436679416 1859.8625820861798 441.64002790084055Q1866.7604333965314 440.6223121337395 1874.3084920025303 439.9155650732527Q1881.8282807261103 439.2088180127659 1888.1324645056525 439.2088180127659L1888.1324645056525 439.2088180127659Q1899.7513861800558 439.2088180127659 1907.0732857266994 442.77082319761945Q1914.395185273343 446.332828382473 1917.75930128126 453.56991828185807Q1921.1234172891773 460.7787382988236 1921.1234172891773 471.9736117369348L1921.1234172891773 471.9736117369348L1921.1234172891773 523.4813375052142Q1921.51919564305 527.9479789274908 1924.685422474031 529.983410461693Q1927.8233794225926 532.018841995895 1932.7140690811611 532.6407794091233L1932.7140690811611 532.6407794091233L1932.1204015503522 545.0512577912718Q1927.6254902456562 545.0512577912718 1923.978675413544 544.5423999077213Q1920.3035906990126 544.0335420241709 1917.052554220773 543.0158262570699L1917.052554220773 543.0158262570699Q1914.395185273343 541.9981104899689 1912.0487850325267 540.5846163689953Q1909.7306546741297 539.142852365602 1907.469064080572 537.1074208314001L1907.469064080572 537.1074208314001Q1903.6243600715234 538.7470740117294 1897.6028751161762 540.5846163689953Q1891.609660043248 542.3938888438415 1884.796618380155 543.7225733175567Q1877.9553068346422 545.0512577912718 1871.2553447012274 545.0512577912718ZM1873.8844437662383 531.8209528189586L1873.8844437662383 531.8209528189586Q1879.3970708380357 531.8209528189586 1885.3054762637053 530.8032370518576Q1891.1856118069559 529.7855212847567 1896.5003497018165 528.372027163783Q1901.7868177142582 526.9302631603898 1905.2357433694337 525.7146582163525L1905.2357433694337 525.7146582163525L1905.2357433694337 492.52581625589147L1875.721986123504 495.3810743802582Q1866.5625442195947 496.200900970423 1862.6047606808688 500.66754239269966Q1858.6187072597231 505.16245369739585 1858.6187072597231 513.5020690111403L1858.6187072597231 513.5020690111403Q1858.6187072597231 522.039573501821 1862.4916811511907 526.9302631603898Q1866.3646550426588 531.8209528189586 1873.8844437662383 531.8209528189586ZM1968.1362317527605 543.0158262570699L1952.4747168923727 543.0158262570699L1952.4747168923727 397.08669320775147L1968.1362317527605 397.08669320775147L1968.1362317527605 543.0158262570699Z " fill="#292826" transform="matrix(0.44458302791162635,0,0,0.44458302791162624,0,91.02320215113453)"/></g></svg>